<svg xmlns="http://www.w3.org/2000/svg" viewBox="0 0 24 24">
  <path
    fill="#C5C5C5"
    fill-rule="evenodd"
    clip-rule="evenodd"
    d="M4.2 5.1c1 2.2 2.8 3.3 5.5 3.4A13.1 13.1 0 0 1 12 8.2c.8 0 1.6.1 2.3.3 2.8-.1 4.5-1.2 5.5-3.4.4 4-1 6.4-4.1 7.7L12 20l-3.7-7.2C5.2 11.5 3.8 9 4.2 5Zm4 4.4c.1 1.6.8 2.8 2.1 3.7L12 16.4l1.7-3.2c1.3-.9 2-2.1 2.1-3.7-.6.6-1.5 1.1-2.7 1.4L12 13.1 10.9 11c-1.2-.3-2.1-.8-2.7-1.5Zm-.7.7c.7.1 1.3.4 1.9.9.4.4.7.9.8 1.4-.8.1-1.6-.1-2.2-.5-.7-.4-1.1-1-1.4-1.8.3-.1.6-.1.9 0Zm9 0c-.3.8-.7 1.4-1.4 1.8-.6.4-1.4.6-2.2.5.1-.5.4-1 .8-1.4.6-.5 1.2-.8 1.9-.9.3-.1.6-.1.9 0ZM12 13.2l1.5 1.2L12 17l-1.5-2.6 1.5-1.2Z"
  />
</svg>
